<svg width="245" height="245" viewBox="0 0 245 245" fill="none" xmlns="http://www.w3.org/2000/svg">
<path d="M208.889 35.8099C185.819 12.7403 155.137 0.0367432 122.5 0.0367432C89.8634 0.0367432 59.1784 12.7403 36.1116 35.8099C13.0447 58.8795 0.338379 89.5617 0.338379 122.199C0.338379 154.835 13.0438 185.52 36.1134 208.587C59.1811 231.659 89.8652 244.362 122.502 244.362C155.139 244.362 185.824 231.657 208.891 208.587C231.958 185.518 244.666 154.835 244.666 122.199C244.664 89.5617 231.96 58.8767 208.891 35.8099H208.889ZM122.5 68.0107C143.924 68.0107 161.336 85.4476 161.336 106.872C161.336 128.296 143.924 145.707 122.5 145.707C101.076 145.707 83.6645 128.296 83.6645 106.872C83.6645 85.4476 101.076 68.0107 122.5 68.0107ZM122.5 230.037C99.9188 230.037 78.933 223.067 61.5732 211.132C66.6923 181.711 92.1788 160.029 122.5 160.029C152.822 160.029 178.31 181.711 183.427 211.132C166.066 223.066 145.08 230.037 122.5 230.037Z" fill="#0038FF"/>
</svg>
