<svg width="153" height="123" viewBox="0 0 153 123" fill="none" xmlns="http://www.w3.org/2000/svg">
<circle cx="80" cy="61.5" r="61.5" fill="white"/>
<path d="M0 73L34.5 79L38 99.5C18 99.5 4.33333 81.8333 0 73Z" fill="white"/>
<path d="M3 96.5L42.5 99.5L79 122.5C32.2 123.3 8.83333 105.5 3 96.5Z" fill="white"/>
<path d="M153 83.5002L123.5 87.5002L84.5 122C121.7 122 145.667 96.3335 153 83.5002Z" fill="white"/>
<path d="M91.3335 63.5C91.3335 57.701 86.6325 53 80.8335 53C75.0345 53 70.3335 57.701 70.3335 63.5C70.3335 69.299 75.0345 74 80.8335 74C86.6325 74 91.3335 69.299 91.3335 63.5Z" fill="#0038FF"/>
<path d="M126.333 63.5C126.333 57.701 121.371 53 115.25 53C109.129 53 104.167 57.701 104.167 63.5C104.167 69.299 109.129 74 115.25 74C121.371 74 126.333 69.299 126.333 63.5Z" fill="#0038FF"/>
<path d="M57.5002 63.5C57.5002 57.701 52.538 53 46.4168 53C40.2957 53 35.3335 57.701 35.3335 63.5C35.3335 69.299 40.2957 74 46.4168 74C52.538 74 57.5002 69.299 57.5002 63.5Z" fill="#0038FF"/>
</svg>
