<svg width="147" height="148" viewBox="0 0 147 148" fill="none" xmlns="http://www.w3.org/2000/svg">
<path fill-rule="evenodd" clip-rule="evenodd" d="M132.298 84.6649C115.193 101.905 88.5317 103.898 69.2183 90.5775L12.3114 147.934L0.262207 135.98L57.0952 78.6973C43.2365 59.4546 44.9001 32.4622 62.1543 15.0716C81.372 -4.29806 112.653 -4.42124 132.023 14.7964C151.392 34.0141 151.516 65.2953 132.298 84.6649ZM71.3954 75.9031C85.774 90.169 108.995 90.0776 123.261 75.6989C137.527 61.3202 137.435 38.0992 123.057 23.8333C108.678 9.56747 85.457 9.65891 71.1911 24.0376C56.9252 38.4163 57.0167 61.6373 71.3954 75.9031Z" fill="white"/>
<path d="M97.3658 69.932L99.4052 60.8307L89.7237 60.472L87.6843 69.5732L82.1414 69.3678L84.1808 60.2666L76.5686 59.9845L77.732 54.5511L85.4181 54.836L87.7066 45.0039L79.9466 44.7163L81.11 39.283L88.944 39.5733L91.0545 30.5487L96.5974 30.7541L94.4868 39.7787L104.168 40.1374L106.279 31.1128L111.822 31.3182L109.711 40.3428L117.841 40.6441L116.677 46.0774L108.474 45.7734L106.185 55.6055L114.463 55.9122L113.299 61.3456L104.948 61.0361L102.909 70.1374L97.3658 69.932ZM93.2495 45.2093L90.961 55.0414L100.643 55.4001L102.931 45.568L93.2495 45.2093Z" fill="white"/>
</svg>
